Coordinates
version=1
nRows=19
nColumns=36
inDegrees=yes

Units are S.I. units (second, meters, Newtons, ...)
If the header above contains a line with 'inDegrees', this indicates whether rotational values are in degrees (yes) or radians (no).

endheader
time	pelvis_tilt	pelvis_list	pelvis_rotation	pelvis_tx	pelvis_ty	pelvis_tz	hip_flexion_r	hip_adduction_r	hip_rotation_r	knee_angle_r	knee_angle_r_beta	ankle_angle_r	subtalar_angle_r	mtp_angle_r	hip_flexion_l	hip_adduction_l	hip_rotation_l	knee_angle_l	knee_angle_l_beta	ankle_angle_l	subtalar_angle_l	mtp_angle_l	lumbar_extension	lumbar_bending	lumbar_rotation	arm_flex_r	arm_add_r	arm_rot_r	elbow_flex_r	pro_sup_r	arm_flex_l	arm_add_l	arm_rot_l	elbow_flex_l	pro_sup_l
      1.48000000	    -11.48691814	      6.57247591	      8.77682522	     -0.36842285	      0.90007861	     -0.58363050	     39.27756523	    -10.45799441	     -2.01333365	     34.07115267	      0.59465379	     -5.75445756	     -9.48704814	     -7.29361138	     48.35500961	      0.36828509	     -1.07475716	     38.20732641	      0.66684364	    -23.77455016	     13.66934247	     -7.29361138	    -12.13805906	      0.19234543	     -1.78830690	    -18.62858906	    -62.31534019	    -31.99678776	     96.98286543	    104.69082234	     81.47948368	    -67.03735115	     44.22102492	     99.15835612	     89.92436267
      1.49000000	    -10.90681206	      6.30605483	      8.22963001	     -0.36084257	      0.87389254	     -0.58266161	     40.85767806	     -9.87390668	     -2.31908885	     40.56659069	      0.70802057	      6.81876084	     -8.91763093	     -7.33165022	     49.69606903	     -0.15661360	     -0.89862731	     41.35045789	      0.72170164	    -22.69825553	     13.72358944	     -7.33165022	    -12.98286373	      0.55498796	     -0.97598450	    -16.64445542	    -62.64161752	    -30.51568132	     95.44849228	    104.62920507	     83.43962352	    -66.95875738	     46.04644893	     98.85286112	     89.87885479
      1.50000000	    -11.00721995	      5.40058671	      7.14169720	     -0.35612316	      0.84870547	     -0.58213628	     44.26344902	     -8.42939135	     -1.85028276	     46.67723066	      0.81467136	     11.86035830	    -10.80712499	     -7.35322072	     52.01024489	     -1.18138026	      0.08699905	     46.23007469	      0.80686702	    -17.22120273	     11.87893604	     -7.35322072	    -13.42311298	      1.76213721	      0.98143538	    -15.45350172	    -63.23181867	    -29.80070834	     94.08229965	    101.66622098	     82.71025413	    -65.80743016	     44.94073445	     98.52752142	     88.14846056
      1.51000000	    -11.62505927	      4.56137118	      5.49797544	     -0.35321923	      0.82516847	     -0.58274980	     49.59774046	     -6.96093877	     -0.67385230	     54.11366088	      0.94446155	     13.64976798	    -11.37172913	     -7.37950908	     54.85993167	     -2.12807206	      0.89146502	     52.63854616	      0.91871594	     -7.92025955	      7.95332200	     -7.37950908	    -13.66979695	      2.99540508	      3.59569111	    -13.72426300	    -63.98658134	    -28.79787851	     92.31495906	     97.77014236	     80.75811949	    -64.15050264	     42.89647187	     98.14219263	     85.79485689
      1.52000000	    -12.06815464	      3.82092740	      3.88973603	     -0.34975101	      0.80468305	     -0.58501281	     54.81677321	     -5.75778464	      0.42543088	     61.85908836	      1.07964476	     13.86552069	    -10.72669732	     -7.42162283	     57.45815151	     -2.74118362	      1.33192168	     59.14005716	      1.03218872	      1.68492161	      5.11072550	     -7.42162283	    -14.16841112	      4.58199015	      1.76134934	      5.56240393	    -65.09627067	    -10.85467597	     86.16711496	    108.43164378	     70.69400292	    -68.08995079	     31.76819732	    100.00583199	     92.89128888
      1.53000000	    -12.38530976	      3.14414766	      2.62339374	     -0.34515008	      0.78682407	     -0.58775582	     58.84727465	     -5.05670496	      0.74111143	     68.19300883	      1.19019253	     14.81381981	     -8.60476712	     -7.42767855	     59.71615479	     -2.98750874	      1.56343860	     64.48549208	      1.12548416	      7.86592847	      1.27999788	     -7.42767855	    -15.10534889	      6.02864935	      4.07200295	      7.89485292	    -65.07493336	     -9.73151420	     83.91135681	    107.71890509	     65.80631197	    -65.01373863	     26.70849369	     99.40768140	     92.37528113
      1.54000000	    -12.64896461	      2.20816821	      1.47687090	     -0.34041854	      0.77173327	     -0.58894930	     61.37855626	     -3.99461581	      0.47495123	     72.19558823	      1.26005072	     15.49577687	     -8.00670844	     -7.45226765	     61.35777151	     -3.75137888	      1.77106846	     68.32048983	      1.19241749	     12.66561827	     -1.67374914	     -7.45226765	    -16.14991651	      7.60977314	      2.92309964	     22.82141830	    -63.05372030	      4.50804315	     78.36377815	    107.67371065	     56.24505498	    -65.97533507	     17.10875574	    100.64870645	     92.71930449
      1.55000000	    -12.85645887	      1.43405128	      0.30292569	     -0.33624422	      0.75868113	     -0.58814439	     62.91289279	     -2.47501530	      0.43005019	     74.66943216	      1.30322744	     16.64827304	     -8.40541375	     -7.46580808	     62.23569535	     -4.94056903	      1.81580540	     70.89522632	      1.23735512	     17.40472296	     -3.17413300	     -7.46580808	    -17.55674271	      8.52860929	      4.03432539	     28.18372757	    -60.87729487	      8.87540423	     74.57544428	    108.11273550	     53.15678024	    -63.73302006	     14.16814865	     99.88766124	     92.97291173
      1.56000000	    -12.89622173	      1.25215175	     -0.69137259	     -0.33293665	      0.74720295	     -0.58657712	     63.92797551	     -0.98585445	      1.10839754	     76.63518179	      1.33753625	     18.08569275	     -9.59318891	     -7.46734351	     62.60300750	     -5.84745351	      1.65736000	     72.81476441	      1.27085738	     21.44106068	     -3.50093607	     -7.46734351	    -19.24987963	      8.50419632	      5.43389251	     30.73662866	    -58.56713401	     10.12888734	     71.63772282	    108.12541518	     53.53049532	    -60.84606137	     14.78842147	     98.07410180	     92.95445308
      1.57000000	    -13.06948333	      1.62686541	     -1.37717705	     -0.33047794	      0.73698224	     -0.58531980	     65.01894011	      0.05732395	      2.21754764	     78.51604695	      1.37036353	     19.78313001	    -10.89443972	     -7.46782156	     63.29014893	     -6.10644447	      1.50595711	     74.65181090	      1.30291989	     23.47307018	     -4.28156684	     -7.46782156	    -20.90392023	      7.85560685	      6.12777534	     32.89740593	    -55.81980248	     10.41940401	     69.60937916	    108.03560681	     53.94609636	    -58.31254842	     15.21476914	     96.33237397	     92.85213419
      1.58000000	    -13.23655865	      2.23556019	     -1.69672819	     -0.32897052	      0.72818192	     -0.58473859	     66.15231115	      0.50749963	      3.25577225	     80.43429071	      1.40384320	     21.03489612	    -11.58829272	     -7.46956207	     64.47032380	     -5.97847478	      1.40524899	     76.75707182	      1.33966363	     24.24132964	     -3.67064509	     -7.46956207	    -22.31358849	      6.93319670	      5.66957640	     37.38465080	    -52.75641060	     14.29447472	     65.81405959	    108.72555455	     55.48283123	    -57.04769336	     17.79711669	     93.95047682	     93.43826164
      1.59000000	    -13.75402412	      2.67733368	     -1.92111759	     -0.32764145	      0.72059999	     -0.58490628	     67.47362090	      0.87916951	      4.12861319	     81.95400975	      1.43036731	     22.08269876	    -12.02479358	     -7.47495972	     66.27204052	     -5.87556304	      1.33585247	     78.90224523	      1.37710397	     23.65738967	     -3.83531045	     -7.47495972	    -23.43578196	      6.51445040	      4.41880011	     42.46412372	    -49.21028439	     18.94795058	     62.36249625	    110.14775547	     54.26758731	    -56.32159030	     17.00457283	     92.26510276	     95.90692989
      1.60000000	    -14.44967770	      3.00958384	     -1.96537678	     -0.32657733	      0.71398660	     -0.58548981	     68.92868736	      1.16836667	      4.93620921	     83.29404435	      1.45375532	     22.53251532	    -12.37018748	     -7.47584420	     68.17192965	     -5.69045029	      1.29932170	     80.69743393	      1.40843592	     22.81802117	     -4.11855731	     -7.47584420	    -24.37611171	      6.18327660	      4.32947832	     44.46879843	    -47.10468889	     20.66747418	     60.85760707	    110.17648116	     55.55257892	    -54.31664315	     19.23428367	     89.75996222	     96.16971098
      1.61000000	    -15.40768985	      3.20623656	     -1.66145312	     -0.32574875	      0.70812397	     -0.58683055	     70.64049135	      1.11830586	      5.43344736	     84.52997403	      1.47532636	     22.59261052	    -12.57915593	     -7.47696365	     70.14671994	     -5.24620759	      1.42473733	     82.00231689	      1.43121042	     21.95348807	     -4.50520967	     -7.47696365	    -25.05410002	      6.21944683	      3.92816531	     46.35320151	    -45.51810834	     22.88839896	     60.14907322	    110.17051423	     56.50818445	    -52.61090804	     21.25808465	     87.37293666	     96.77509083
      1.62000000	    -16.63442918	      3.19134963	     -1.10065313	     -0.32503097	      0.70307533	     -0.58862091	     72.52948740	      0.78147543	      5.49272413	     85.54698007	      1.49307647	     22.37885928	    -12.56505499	     -7.47729252	     72.23359126	     -4.76982870	      1.71588541	     82.91582017	      1.44715406	     21.33172016	     -4.28347800	     -7.47729252	    -25.52159096	      6.66783861	      3.31496736	     47.64689708	    -44.00259539	     23.95866564	     60.55611215	    110.18405789	     56.66471173	    -51.06910876	     22.16799692	     85.45885185	     96.88356003
      1.63000000	    -17.65867566	      2.88063015	     -0.52649800	     -0.32430600	      0.69945930	     -0.59065344	     73.95010459	      0.42450853	      5.18365280	     86.20865203	      1.50462482	     22.07756747	    -12.65331988	     -7.47817537	     73.97172727	     -4.56366197	      2.08959789	     83.61885836	      1.45942440	     20.81205902	     -3.81406859	     -7.47817537	    -26.13148860	      7.47992679	      2.86503868	     49.49495838	    -43.09604651	     26.80433681	     60.73685750	    110.06146491	     57.18295569	    -49.53071729	     23.61668013	     83.09543193	     97.60786003
      1.64000000	    -18.55778773	      2.49984297	      0.11001404	     -0.32340021	      0.69743350	     -0.59313353	     74.96108991	     -0.07948964	      4.81110876	     86.52314448	      1.51011375	     21.95240388	    -12.57989361	     -7.47920857	     75.26486680	     -4.28230286	      2.52886701	     83.89924335	      1.46431804	     20.74638267	     -2.88658807	     -7.47920857	    -26.96612463	      8.49103115	      2.26586314	     51.15742311	    -42.12504347	     29.10944109	     61.54469248	    109.83877743	     57.13842154	    -48.16330804	     24.20511172	     81.12956455	     98.62580885
      1.65000000	    -19.33688095	      2.25264184	      0.76417614	     -0.32230368	      0.69664189	     -0.59581883	     75.67843766	     -0.77992341	      4.53045145	     86.61921650	      1.51179052	     21.80716085	    -12.33986133	     -7.47950152	     76.07667206	     -3.83520473	      2.81134293	     83.74612049	      1.46164554	     20.65161746	     -2.34389408	     -7.47950152	    -27.88353959	      9.37535513	      1.58879503	     52.24091650	    -41.12128000	     30.21459843	     62.63370971	    109.85537534	     56.93040181	    -46.83283137	     24.51138786	     79.37177421	     98.84256546
      1.66000000	    -20.06278518	      2.15462274	      1.09500186	     -0.32121290	      0.69640789	     -0.59743976	     76.31062790	     -1.18921375	      4.45309075	     86.54701777	      1.51053042	     21.67425259	    -12.14874675	     -7.47963097	     76.54052234	     -3.71975243	      2.76754162	     83.33614607	      1.45449013	     20.85198493	     -2.02911482	     -7.47963097	    -28.86266585	      9.91606586	      1.05821295	     53.06909323	    -40.06067928	     31.00517823	     63.78169290	    109.90924185	     56.64789472	    -45.83994488	     24.82464920	     77.85727763	     98.90453961
